Coordinates
version=1
nRows=19
nColumns=63
inDegrees=yes

Units are S.I. units (second, meters, Newtons, ...)
If the header above contains a line with 'inDegrees', this indicates whether rotational values are in degrees (yes) or radians (no).

endheader
time	pelvis_tilt	pelvis_list	pelvis_rotation	pelvis_tx	pelvis_ty	pelvis_tz	hip_flexion_r	hip_adduction_r	hip_rotation_r	knee_angle_r	knee_angle_r_beta	ankle_angle_r	subtalar_angle_r	mtp_angle_r	hip_flexion_l	hip_adduction_l	hip_rotation_l	knee_angle_l	knee_angle_l_beta	ankle_angle_l	subtalar_angle_l	mtp_angle_l	L5_S1_Flex_Ext	L5_S1_Lat_Bending	L5_S1_axial_rotation	L4_L5_Flex_Ext	L4_L5_Lat_Bending	L4_L5_axial_rotation	L3_L4_Flex_Ext	L3_L4_Lat_Bending	L3_L4_axial_rotation	L2_L3_Flex_Ext	L2_L3_Lat_Bending	L2_L3_axial_rotation	L1_L2_Flex_Ext	L1_L2_Lat_Bending	L1_L2_axial_rotation	L1_T12_Flex_Ext	L1_T12_Lat_Bending	L1_T12_axial_rotation	Abs_r3	Abs_r2	Abs_r1	Abs_t1	Abs_t2	neck_flexion	neck_bending	neck_rotation	arm_flex_r	arm_add_r	arm_rot_r	elbow_flex_r	pro_sup_r	wrist_flex_r	wrist_dev_r	arm_flex_l	arm_add_l	arm_rot_l	elbow_flex_l	pro_sup_l	wrist_flex_l	wrist_dev_l
0.857143	5.014651	-3.674092	86.298700	0.319237	1.038169	0.414634	-0.221653	-1.359493	11.260401	3.261395	0.056922	27.661805	-4.028421	0.000000	-0.566939	0.105963	5.175366	2.091924	0.036511	25.573683	-12.962163	0.000000	0.059809	0.254901	0.466807	0.111071	0.339018	0.495982	0.098260	0.619766	0.495982	0.068356	0.619766	0.408456	0.055539	0.519794	0.379280	0.034175	0.394841	0.350105	0.427209	2.883489	2.596238	0.000000	0.000000	27.946180	-2.994803	-1.172962	6.771735	-10.827797	35.744577	31.193868	84.436992	-11.958193	-1.007373	9.550566	-12.355344	68.833332	22.287108	54.229652	-9.249820	-5.920795
0.875000	5.213850	-3.375744	86.089206	0.320057	1.038389	0.413252	-0.653587	-1.113904	12.067913	3.050855	0.053247	27.703968	-4.582845	0.000000	-1.111862	-0.130166	5.212625	1.924756	0.033593	25.593739	-13.046875	0.000000	0.030729	0.268576	0.502174	0.057066	0.357206	0.533560	0.050484	0.653016	0.533560	0.035120	0.653016	0.439402	0.028535	0.547681	0.408017	0.017558	0.416025	0.376631	0.219491	3.038188	2.792943	0.000000	0.000000	27.807665	-3.176072	-1.329646	6.497068	-11.073082	38.441829	29.347293	80.783969	-11.818907	-0.918406	9.128804	-12.664911	75.022939	20.441202	51.161783	-10.621873	-7.039628
0.892857	5.411814	-3.079067	85.845929	0.321016	1.038627	0.411937	-1.040969	-0.866774	12.768465	2.922348	0.051005	27.838558	-4.927618	0.000000	-1.654515	-0.373269	5.177044	1.773815	0.030959	25.623247	-13.066273	0.000000	-0.000766	0.279517	0.548601	-0.001422	0.371757	0.582889	-0.001258	0.679617	0.582889	-0.000875	0.679617	0.480026	-0.000711	0.569990	0.445738	-0.000437	0.432971	0.411451	-0.005468	3.161948	3.051154	0.000000	0.000000	27.638363	-3.346692	-1.583035	6.365126	-11.176045	43.185877	27.220645	75.533867	-11.041268	-0.804631	8.742353	-12.914595	82.766836	18.557578	47.608323	-11.491711	-7.926394
0.910714	5.611592	-2.782368	85.589195	0.322088	1.038853	0.410648	-1.403488	-0.606429	13.531301	2.856180	0.049850	28.008494	-5.347489	0.000000	-2.202198	-0.621008	5.151796	1.626470	0.028387	25.647814	-13.130523	0.000000	-0.036425	0.287445	0.598718	-0.067645	0.382303	0.636137	-0.059842	0.698895	0.636137	-0.041630	0.698895	0.523878	-0.033824	0.586159	0.486458	-0.020813	0.445253	0.449038	-0.260179	3.251641	3.329888	0.000000	0.000000	27.462227	-3.492226	-1.936930	6.365347	-11.147970	49.772133	24.895355	69.375588	-9.777426	-0.792805	8.267661	-13.111992	91.309662	16.760408	43.538733	-11.794657	-7.997218
0.928571	5.802985	-2.498086	85.336711	0.323220	1.039077	0.409427	-1.717601	-0.350334	14.211380	2.879376	0.050255	28.243262	-5.665208	0.000000	-2.728652	-0.862937	5.107711	1.494822	0.026090	25.679087	-13.171309	0.000000	-0.075825	0.291560	0.654132	-0.140814	0.387774	0.695016	-0.124572	0.708898	0.695016	-0.086660	0.708898	0.572366	-0.070411	0.594549	0.531482	-0.043326	0.451626	0.490599	-0.541608	3.298182	3.638087	0.000000	0.000000	27.283853	-3.675463	-2.447231	6.482277	-11.003886	57.906412	22.435289	62.371790	-8.164143	-0.813521	7.755711	-13.249718	100.817188	14.971732	39.338808	-11.729194	-7.550396
0.946429	5.971234	-2.242535	85.100028	0.324392	1.039300	0.408273	-1.964724	-0.107652	14.819543	3.003187	0.052416	28.508361	-5.956734	0.000000	-3.211012	-1.082189	5.059943	1.378830	0.024065	25.705119	-13.224996	0.000000	-0.116012	0.290357	0.708042	-0.215447	0.386175	0.752294	-0.190597	0.705974	0.752294	-0.132591	0.705974	0.619536	-0.107729	0.592096	0.575284	-0.066289	0.449763	0.531031	-0.828665	3.284575	3.937915	0.000000	0.000000	27.119882	-3.890896	-3.086044	6.734492	-10.749563	67.285590	19.890855	54.832680	-6.360152	-0.907442	7.186396	-13.368780	110.956396	13.214957	34.980772	-11.454446	-6.785954
0.964286	6.109146	-2.022065	84.902498	0.325531	1.039521	0.407195	-2.128789	0.095447	15.044036	3.252576	0.056768	28.852878	-5.856590	0.000000	-3.632921	-1.270412	4.989545	1.283477	0.022401	25.738666	-13.239162	0.000000	-0.154966	0.283920	0.755403	-0.287787	0.377614	0.802616	-0.254594	0.690323	0.802616	-0.177111	0.690323	0.660978	-0.143901	0.578970	0.613765	-0.088548	0.439792	0.566552	-1.106906	3.211761	4.201325	0.000000	0.000000	26.983356	-4.118834	-3.799667	7.120523	-10.434557	77.142050	17.433013	47.080748	-4.572193	-1.089143	6.559114	-13.474730	121.291804	11.470272	30.606461	-11.063953	-5.925294
0.982143	6.202785	-1.848264	84.746956	0.326603	1.039732	0.406167	-2.201943	0.245911	14.905017	3.617826	0.063143	29.253308	-5.413271	0.000000	-3.978798	-1.412077	4.914984	1.210419	0.021126	25.766892	-13.248966	0.000000	-0.188657	0.271625	0.794935	-0.350356	0.361261	0.844618	-0.309945	0.660428	0.844618	-0.215617	0.660428	0.695568	-0.175187	0.553897	0.645884	-0.107799	0.420747	0.596201	-1.347562	3.072672	4.421187	0.000000	0.000000	26.885616	-4.322483	-4.536385	7.596254	-10.048179	87.217442	15.056303	39.253555	-2.827055	-1.418486	5.857171	-13.552669	131.467424	9.725000	26.389182	-10.638770	-5.018608
1.000000	6.255451	-1.727905	84.670535	0.327558	1.039938	0.405244	-2.184468	0.350194	14.468615	4.076872	0.071155	29.669646	-4.762288	0.000000	-4.224702	-1.510895	4.870339	1.175460	0.020516	25.770132	-13.278189	0.000000	-0.215091	0.254429	0.822197	-0.399445	0.338390	0.873584	-0.353373	0.618617	0.873584	-0.245827	0.618617	0.719422	-0.199733	0.518831	0.668035	-0.122903	0.394110	0.616648	-1.536373	2.878146	4.572813	0.000000	0.000000	26.832951	-4.546582	-5.323221	8.180379	-9.649939	97.034935	12.893558	31.498453	-1.321905	-1.949879	5.262334	-13.646250	142.062589	7.970976	21.501945	-10.472396	-4.480372
1.017857	6.254060	-1.675637	84.666151	0.328374	1.040112	0.404424	-2.064715	0.396445	13.770042	4.608979	0.080442	30.097568	-3.939039	0.000000	-4.351646	-1.551091	4.900172	1.180975	0.020612	25.725495	-13.396030	0.000000	-0.231352	0.231901	0.837881	-0.429644	0.308429	0.890249	-0.380088	0.563845	0.890249	-0.264412	0.563845	0.733146	-0.214834	0.472893	0.680779	-0.132195	0.359215	0.628411	-1.652525	2.623313	4.660045	0.000000	0.000000	26.829992	-4.777157	-6.128755	8.817201	-9.266682	105.815379	11.092276	24.193440	-0.062993	-2.717901	4.669032	-13.727297	152.286762	6.281371	16.742816	-10.602059	-4.094054
1.035714	6.193207	-1.705197	84.738157	0.329048	1.040241	0.403738	-1.834942	0.374644	12.792376	5.184114	0.090480	30.536664	-2.898830	0.000000	-4.333861	-1.532112	4.887359	1.240400	0.021649	25.685335	-13.417718	0.000000	-0.236706	0.203758	0.844871	-0.439586	0.270998	0.897676	-0.388884	0.495416	0.897676	-0.270531	0.495416	0.739262	-0.219805	0.415503	0.686458	-0.135254	0.315621	0.633653	-1.690765	2.304948	4.698921	0.000000	0.000000	26.876920	-5.012919	-6.963406	9.476029	-8.881132	113.328907	9.662469	17.458147	0.946839	-3.797314	4.098145	-13.811185	161.672024	4.720491	12.307604	-10.990076	-3.872990
1.053571	6.065049	-1.830028	84.888504	0.329567	1.040307	0.403214	-1.487631	0.276196	11.545033	5.773923	0.100774	30.992406	-1.639159	0.000000	-4.151363	-1.446322	4.818272	1.355538	0.023659	25.670385	-13.315243	0.000000	-0.232060	0.169546	0.849048	-0.430959	0.225496	0.902114	-0.381252	0.412234	0.902114	-0.265222	0.412234	0.742917	-0.215491	0.345738	0.689852	-0.132599	0.262626	0.636786	-1.657584	1.917935	4.722153	0.000000	0.000000	26.971275	-5.254800	-7.837652	10.069961	-8.435234	119.745870	8.420543	11.493950	1.690065	-5.137836	3.585498	-13.902745	169.913897	3.323672	8.318979	-11.478822	-3.755330
1.071429	5.862809	-2.067003	85.093928	0.329966	1.040270	0.402880	-1.016232	0.101303	10.365187	6.336216	0.110588	31.391815	-0.562502	0.000000	-3.786952	-1.286579	4.694262	1.519251	0.026516	25.713915	-13.094930	0.000000	-0.218680	0.128071	0.859933	-0.406111	0.170335	0.913679	-0.359270	0.311393	0.913679	-0.249930	0.311393	0.752442	-0.203067	0.261163	0.698696	-0.124954	0.198383	0.644950	-1.562012	1.448769	4.782692	0.000000	0.000000	27.105998	-5.496652	-8.806715	10.546556	-7.943021	125.327471	7.310114	6.221535	2.109038	-6.655791	3.101138	-14.033826	176.265758	2.212285	5.587836	-12.031232	-3.515551
1.089286	5.588792	-2.421431	85.360058	0.330219	1.040115	0.402784	-0.417144	-0.151978	9.121666	6.855407	0.119649	31.795337	0.536598	0.000000	-3.230876	-1.053427	4.489958	1.728553	0.030169	25.849780	-12.705677	0.000000	-0.199520	0.080125	0.875483	-0.370529	0.106566	0.930201	-0.327792	0.194815	0.930201	-0.228032	0.194815	0.766048	-0.185275	0.163390	0.711330	-0.114006	0.124113	0.656613	-1.425153	0.906385	4.869177	0.000000	0.000000	27.270165	-5.692059	-9.819498	10.859754	-7.410853	129.958997	6.377885	2.013558	2.142558	-8.114392	2.699694	-14.206408	180.676955	1.376634	3.962911	-12.577594	-3.260617
1.107143	5.262797	-2.895687	85.678320	0.330302	1.039814	0.402976	0.309480	-0.465556	7.836371	7.316877	0.127704	32.201275	1.646422	0.000000	-2.476119	-0.764132	4.179513	1.989999	0.034732	26.126773	-12.110983	0.000000	-0.176475	0.028757	0.893830	-0.327732	0.038247	0.949694	-0.289931	0.069920	0.949694	-0.201694	0.069920	0.782101	-0.163875	0.058641	0.726237	-0.100838	0.044545	0.670373	-1.260546	0.325305	4.971215	0.000000	0.000000	27.446213	-5.812729	-10.822013	10.992418	-6.861532	133.607062	5.669289	-0.964659	1.767596	-9.331414	2.366058	-14.414898	182.692169	0.843641	3.665874	-13.070297	-3.057813
1.125000	4.887553	-3.478042	86.037574	0.330194	1.039334	0.403499	1.147820	-0.841072	6.544275	7.709607	0.134558	32.616989	2.735393	0.000000	-1.541073	-0.416515	3.769578	2.291789	0.039999	26.551459	-11.326882	0.000000	-0.152229	-0.025119	0.908696	-0.282705	-0.033408	0.965490	-0.250097	-0.061074	0.965490	-0.173983	-0.061074	0.795109	-0.141360	-0.051222	0.738316	-0.086984	-0.038909	0.681522	-1.087357	-0.284150	5.053897	0.000000	0.000000	27.612939	-5.797690	-11.732599	10.946354	-6.314127	136.091954	5.225513	-2.463655	1.015454	-10.156271	2.060892	-14.670302	181.898967	0.651642	4.859733	-13.594000	-3.037067
1.142857	4.501111	-4.167447	86.431229	0.329862	1.038624	0.404353	2.088577	-1.240202	5.282695	8.023020	0.140028	33.033892	3.768453	0.000000	-0.431893	-0.047338	3.278277	2.635625	0.046000	27.144218	-10.389968	0.000000	-0.125411	-0.075471	0.919137	-0.232901	-0.100376	0.976583	-0.206038	-0.183500	0.976583	-0.143332	-0.183500	0.804245	-0.116457	-0.153901	0.746799	-0.071660	-0.116905	0.689353	-0.895799	-0.853744	5.111965	0.000000	0.000000	27.748051	-5.670181	-12.484669	10.691061	-5.808471	137.107957	5.086585	-2.191161	-0.149059	-10.541721	1.749689	-14.976507	177.983183	0.859279	7.665104	-14.094420	-3.199076
1.160714	4.135481	-4.942460	86.826341	0.329234	1.037728	0.405597	3.119924	-1.641182	4.012284	8.277486	0.144469	33.448186	4.831438	0.000000	0.822531	0.318624	2.696064	3.027186	0.052834	27.858329	-9.326349	0.000000	-0.098975	-0.116181	0.921790	-0.183807	-0.154520	0.979402	-0.162607	-0.282482	0.979402	-0.113119	-0.282482	0.806566	-0.091909	-0.236916	0.748954	-0.056555	-0.179964	0.691342	-0.706971	-1.314259	5.126719	0.000000	0.000000	27.847104	-5.404842	-12.967573	10.360727	-5.449880	137.034025	5.221506	-0.677489	-1.567916	-10.457209	1.708587	-14.903188	176.469444	0.611025	7.113846	-14.195853	-4.253612
1.178571	3.796449	-5.790102	87.232783	0.328315	1.036595	0.407159	4.203940	-2.036483	2.839118	8.436075	0.147237	33.819615	5.774161	0.000000	2.196189	0.677516	2.075616	3.460444	0.060396	28.654701	-8.190830	0.000000	-0.072470	-0.146112	0.914340	-0.134583	-0.194330	0.971487	-0.119060	-0.355258	0.971487	-0.082825	-0.355258	0.800048	-0.067295	-0.297953	0.742901	-0.041409	-0.226328	0.685755	-0.517643	-1.652854	5.085286	0.000000	0.000000	27.943054	-5.019724	-13.133913	9.833318	-5.261766	134.953875	5.771378	2.764635	-3.262036	-9.877921	1.731065	-14.733027	173.649304	0.542711	6.425000	-14.219611	-5.754057
